<svg width="1134" height="658" viewBox="0 0 1134 658" fill="none" xmlns="http://www.w3.org/2000/svg">
<path d="M514.482 0.00932288C527.156 -0.570077 559.204 26.0111 566.791 36.7149C571.424 43.2469 575.833 50.9519 580.289 57.7099C578.442 42.7209 572.393 28.5605 562.836 16.8671C558.803 11.863 553.702 6.49243 550.234 1.26173L550.507 0.572922C562.559 3.71852 585.052 26.7339 591.955 37.7209C596.072 44.2839 600.081 52.1569 603.475 59.2149C603.359 32.3092 595.649 25.4992 586.984 3.35192C597.319 9.67612 609.847 25.8717 615.687 36.5209C619.827 44.0869 622.713 54.0499 626.576 62.1229L627.63 62.1339C632.971 52.8629 628.077 31.9359 625.137 22.2816C624.037 18.673 621.882 12.1 622.036 8.59383L623.075 8.06052C637.465 16.5215 644.876 52.9769 648.215 68.0859C648.792 67.3949 649.323 66.6759 649.824 65.9309C663.737 45.4979 650.201 26.5699 646.284 6.36072C667.161 27.6776 669.57 49.1239 672.094 76.4529C686.669 50.3399 683.475 42.8629 680.528 14.0329C698.058 35.3282 696.349 56.6369 697.281 81.9269C707.323 65.3799 705.23 53.9559 704.006 35.2612C718.958 50.1309 719.32 66.4539 719.551 85.8269C725.245 79.7859 746.084 62.4499 754.641 64.8149C753.995 69.9529 732.11 86.1109 738.643 99.5139C740.151 99.5749 772.31 75.2719 781.781 79.7619C780.501 82.9849 771.225 88.7699 767.908 92.4139C762.729 98.1029 761.113 99.8569 757.72 106.864C772.495 101.122 769.747 99.8919 788.281 95.5759C785.641 99.2869 776.058 107.73 777.604 111.762C780.151 112.356 793.071 110.731 799.701 111.23C798.451 112.42 783.131 122.595 787.351 124.755C833.261 148.225 880.961 172.547 931.591 184.01C937.971 185.452 974.261 189.015 975.581 190.754C970.721 193.924 957.371 199.261 951.791 201.186C888.571 222.999 820.971 196.976 763.968 169.434C760.074 172.355 748.67 184.028 744.661 187.991C716.442 215.46 673.125 240.303 634.302 248.951C601.259 256.311 558.75 255.335 525.59 250.634C511.617 248.652 497.597 247.408 483.99 243.493C385.44 215.297 294.126 164.689 192.041 147.913C182.654 146.37 170.707 147.39 160.421 146.053C161.676 145.354 162.961 144.709 164.272 144.119C238.684 110.354 299.94 122.395 373.135 150.143C376.579 148.243 383.874 142.229 387.286 139.603C395.119 133.606 402.996 127.667 410.916 121.788C439.994 100.303 472.456 83.8309 506.962 73.0519C496.555 59.5879 469.444 41.4489 455.254 31.6264C450.269 28.1756 438.372 21.5665 434.984 17.6207L435.316 16.8056C452.087 16.9187 505.294 54.4039 520.128 65.7229C505.458 42.7599 482.865 29.4773 464.404 11.8506C491.521 21.8059 519.205 40.7669 539.459 61.1699C530.465 36.8789 518.528 28.0371 502.934 10.0801C526.592 17.9232 539.761 35.623 554.871 52.6419C547.534 32.0475 530.342 14.4894 514.482 0.00932288Z" fill="#C8A55B"/>
<path d="M566.589 112.074C638.74 105.117 658.248 194.867 581.187 205.705C541.114 210.778 495.227 176.181 524.564 133.221C533.208 120.563 551.614 113.86 566.589 112.074Z" fill="#F6F3F0"/>
<path d="M493.198 104.297L495.206 104.33C495.323 105.195 488.089 114.639 486.826 116.726C482.197 124.261 479.08 132.628 477.651 141.356C474.255 162.798 480.462 178.933 492.775 195.963C470.94 187.188 446.377 179.657 424.987 170.322C410.618 163.959 394.784 158.872 380.065 152.496C403.271 134.998 463.915 110.336 493.198 104.297Z" fill="#F6F3F0"/>
<path d="M658.666 122.189C666.084 122.974 748.208 161.729 759.605 167.918C749.84 175.893 731.364 185.681 720.136 191.36C698.435 202.291 677.758 208.009 654.226 213.371C676.265 177.876 677.943 159.926 658.666 122.189Z" fill="#F6F3F0"/>
<path d="M0.0986624 459.009L819.111 459.024L1042.79 459.054L1102.35 458.948C1108.57 458.933 1127.06 458.542 1132.27 459.487C1133.49 461.592 1133.11 465.456 1133.08 468.085L320.632 468.076L93.9277 468.048L31.7887 468.145C25.3727 468.158 6.19267 468.557 0.871673 467.666C-0.351327 465.556 0.0566624 461.65 0.0986624 459.009Z" fill="#C8A55B"/>
<path d="M357.751 326.839C417.812 318.037 429.23 420.948 365.922 427.848C303.481 434.453 295.727 333.72 357.751 326.839Z" fill="#C8A55B"/>
<path d="M355.549 337.465C379.981 335.389 393.584 347.199 395.847 371.39C397.872 393.038 390.761 412.43 367.447 417.273C329.243 420.252 318.777 381.035 333.829 352.503C338.141 344.328 346.729 339.608 355.549 337.465Z" fill="#F6F3F0"/>
<path d="M703.299 326.847C762.776 317.846 775.605 419.921 711.526 427.902C648.17 433.592 642.276 333.324 703.299 326.847Z" fill="#C8A55B"/>
<path d="M701.073 337.454C725.529 335.307 739.25 347.119 741.466 371.453C743.444 393.107 736.433 412.7 712.955 417.276C705.052 417.839 698.126 417.648 691.108 413.693C668.414 400.912 667.052 361.015 686.268 344.626C691.169 340.446 695.071 338.969 701.073 337.454Z" fill="#F6F3F0"/>
<path d="M1057.16 326.84C1113.17 319.193 1125.12 405.435 1079.05 424.716C1074.23 426.731 1069.76 427.3 1064.65 427.925C1002.5 433.263 994.811 333.844 1057.16 326.84Z" fill="#C8A55B"/>
<path d="M1054.14 337.499C1093.69 333.325 1103.29 372.187 1089.41 402.055C1085.58 410.305 1076.3 414.934 1067.74 417.167C1059.7 417.912 1052.63 417.899 1045.24 414.027C1020.35 400.975 1020.18 355.471 1044.19 341.455C1047.5 339.53 1050.52 338.566 1054.14 337.499Z" fill="#F6F3F0"/>
<path d="M749.424 512.388C762.483 511.552 776.342 512.53 788.671 517.247C795.771 520.212 808.871 524.96 812.051 532.487C817.441 545.252 797.621 558.05 786.621 553.453C781.411 551.274 779.259 546.056 782.191 541.065C783.201 539.357 786.701 537.383 788.631 536.839C790.451 536.346 790.041 536.378 791.611 537.258L791.721 538.157C789.121 538.82 788.581 538.887 786.401 540.536C782.461 548.676 800.041 555.327 804.751 546.52C814.551 528.446 797.441 522.324 782.121 525.616C766.407 528.991 751.194 536.072 736.288 542.053C716.834 549.862 696.934 557.057 678.381 566.765C655.087 578.955 630.67 584.609 607.345 569.561C604.729 567.13 602.343 564.853 599.242 562.819C590.523 557.096 565.852 546.226 570.585 532.529C576.88 515.514 611.832 517.023 604.483 539.548C600.112 552.972 582.197 542.605 588.153 532.987C590.577 531.776 589.485 532.001 592.463 532.429L589.477 534.238C588.838 538.011 591.478 540.692 595.056 541.441C611.424 537.225 589.007 514.019 577.457 527.225C575.564 529.362 574.61 532.167 574.81 535.011C575.541 545.113 588.253 549.979 596.964 550.986C636.472 555.557 675.857 533.191 711.994 519.98C724.083 515.558 736.919 513.557 749.424 512.388Z" fill="#C8A55B"/>
<path d="M747.294 517.773C752.596 517.072 777.752 516.652 781.471 518.824C779.537 519.262 777.036 519.41 775.104 519.36C743.954 518.236 718.906 535.057 691.826 546.579C676.397 553.144 646.416 559.75 629.963 562.064C614.311 563.066 606.554 562.11 593.487 553.379C617.874 559.695 646.493 553.129 668.124 541.626C695.581 527.021 716.02 520.905 747.294 517.773Z" fill="#F6F3F0"/>
<path d="M767.833 524.031L768.91 523.957C768.787 524.069 749.149 531.378 746.863 532.191C707.255 546.254 658.944 585.48 615.143 569.18L606.862 565.195C641.984 571.624 663.315 558.989 695.089 547.324C716.713 539.386 745.463 526.573 767.833 524.031Z" fill="#F6F3F0"/>
<path d="M369.831 512.382C372.983 511.852 383.321 512.161 386.644 512.412C399.071 513.401 411.328 515.919 423.14 519.907C431.672 522.778 439.343 527.018 447.841 530.122C477.66 541.015 511.714 557.533 544.104 549.729C552.233 547.772 563.191 540.415 560.113 530.726C559.336 528.239 557.589 526.169 555.273 524.982C541.118 517.774 527.413 537.104 538.957 541.594C541.674 541.225 542.003 541.139 544.236 539.452C545.527 536.81 545.234 536.339 544.274 533.026L544.124 532.521C546.281 532.424 545.443 532.248 547.489 533.913C551.317 543.262 536.976 550.833 531.736 541.929C524.438 529.528 537.062 517.713 549.609 521.422C553.741 522.392 561.56 525.07 563.63 529.415C571.056 544.968 545.876 556.961 536.313 562.212C527.757 568.286 525.012 573.331 513.294 576.514C485.488 584.66 461.788 568.374 437.739 557.661C420.547 550.003 401.9 543.884 384.672 536.322C372.928 531.166 329.708 513.162 327.245 536.506C326.229 546.131 339.618 556.918 348.7 546.413C350.101 541.762 348.536 540.674 344.463 538.384L343.876 538.057L344.447 537.169C345.906 536.774 347.999 536.311 349.22 537.489C364.99 552.394 340.684 559.654 329.201 549.305C303.322 525.985 354.377 513.853 369.831 512.382Z" fill="#C8A55B"/>
<path d="M375.073 517.044C409.734 517.832 435.748 525.18 465.672 541.013C487.753 552.696 516.126 559.723 541.06 553.553C533.006 559.5 529.445 560.446 520.049 562.07C496.521 562.957 457.738 553.457 436.448 543.314C406.055 528.834 389.553 519.933 355.007 518.832C362.498 517.231 367.515 517.28 375.073 517.044Z" fill="#F6F3F0"/>
<path d="M364.995 523.758C384.895 524.461 422.128 540.789 441.717 547.957C470.96 558.658 491.145 570.38 524.052 566.132L524.529 566.743L521.92 568.424C482.827 583.503 445.243 557.719 410.346 541.762C395.161 534.818 380.733 529.284 364.995 523.758Z" fill="#F6F3F0"/>
<path d="M531.063 328.184L543.767 328.193L540.914 337.612C538.928 346.287 535.183 358.202 532.667 367.139L515.892 426.476L502.489 426.474L488.832 378.165C486.131 368.582 482.248 356.009 480.619 346.394C475.37 370.027 465.088 402.527 458.301 426.431L445.097 426.44C435.072 394.417 425.769 360.571 416.233 328.233L428.946 328.202C435.889 354.608 446.265 386.384 451.787 412.423C453.849 402.59 457.69 390.391 460.511 380.595L475.635 328.172L486.614 328.213L500.769 379.726C503.441 389.472 507.289 402.108 508.916 411.824C516.356 388.632 524.924 352.408 531.063 328.184Z" fill="#C8A55B"/>
<path d="M939.731 328.224L951.191 328.191L951.221 374.31C964.321 358.852 977.531 343.483 990.851 328.2L1004.88 328.203C992.941 342.819 975.731 360.94 962.841 375.353C971.801 385.393 980.711 395.478 989.571 405.608L1008.09 426.441L992.231 426.448C979.831 413.389 963.211 392.374 951.211 378.124L951.201 426.38L939.671 426.471L939.731 328.224Z" fill="#C8A55B"/>
<path d="M853.671 328.192L925.051 328.258C921.731 334.686 915.081 343.965 910.861 350.191L882.311 392.229C877.881 398.78 870.241 409.459 866.721 415.971L922.351 415.937L922.321 426.403L847.491 426.35C850.921 419.578 861.921 404.121 866.501 397.348C879.781 377.898 892.931 358.366 905.961 338.751L853.691 338.76L853.671 328.192Z" fill="#C8A55B"/>
<path d="M558.175 328.22L607.979 328.194V338.724L569.664 338.766L569.656 371.246L605.055 371.241L605.109 381.77C593.381 381.629 581.384 381.765 569.633 381.769L569.649 393.913V415.953L610.249 415.979L610.303 426.427L558.175 426.436V328.22Z" fill="#C8A55B"/>
<path d="M55.6371 326.83C64.4061 325.877 72.8851 327.092 81.2171 329.805L81.2951 342.72C71.1501 337.231 51.2701 333.035 42.0051 342.703C29.2021 356.065 47.5241 366.975 58.8361 372.088C77.8581 380.685 95.9221 397.258 79.2031 418.386C72.7421 426.444 59.5681 427.637 49.5301 428.135C39.2281 427.067 35.4631 426.605 25.9601 422.77L25.9141 409.08C36.5141 416.471 62.8841 423.154 70.6081 410.978C87.5811 384.218 27.0981 381.759 26.1081 356.38C25.3151 336.03 38.7611 329.068 55.6371 326.83Z" fill="#C8A55B"/>
<path d="M811.671 326.825C822.481 326.059 829.531 327.027 839.771 330.526L839.751 342.747C821.161 333.196 793.951 334.718 784.381 354.972C767.554 390.592 788.511 428.004 831.351 414.994C833.891 414.164 837.261 412.384 839.751 411.162L839.761 422.422C834.271 424.893 828.471 426.588 822.511 427.458C753.241 437.631 745.9 334.912 811.671 326.825Z" fill="#C8A55B"/>
<path d="M229.828 328.204L241.995 328.198C236.84 339.088 230.336 350.888 224.686 361.642C206.411 396.038 209.572 387.032 209.712 426.455L198.301 426.495C198.187 420.837 198.949 395.179 197.768 391.782C190.858 371.9 175.762 347.999 167.054 328.272L179.846 328.219C188.225 344.763 196.368 361.426 204.271 378.202C211.811 362.011 221.755 344.643 229.828 328.204Z" fill="#C8A55B"/>
<path d="M547.652 588.417C560.228 587.615 563.907 593.166 567.747 604.19C569.994 598.062 571.533 593.793 577.466 590.482C581.444 588.286 586.123 587.758 590.486 589.015C606.654 593.796 596.812 617.822 581.475 612.605C580.013 612.11 578.166 610.17 578.059 608.61C577.412 599.647 590.271 602.087 593.842 596.485C592.38 590.767 582.822 589.313 578.22 592.481C569.155 598.726 568.87 613.457 574.026 622.15C576.766 626.75 581.252 630.042 586.462 631.271C596.173 633.661 613.08 627.587 612.587 615.083C612.518 613.466 611.141 612.594 611.602 610.52L613.057 610.336C615.281 611.612 616.858 615.008 618.428 617.414C620.968 614.204 624.307 609.121 628.032 607.65C632.88 605.738 648.047 602.963 649.679 610.269C649.486 610.415 649.286 610.559 649.086 610.704C624.446 613.862 611.041 638.911 585.231 634.03C574.234 628.817 571.179 626.346 568.047 614.14C564.992 623.009 560.79 631.066 550.948 633.881C532.776 639.08 516.903 623.28 502.018 615.467C497.369 613.027 490.951 612.958 486.044 610.221L485.972 609.024C487.004 608.137 488.417 607.017 489.557 606.765C507.504 602.806 505.399 606.299 516.697 616.548C518.341 618.041 519.114 612.014 522.775 610.28C526.129 611.399 520.208 614.87 524.663 621.222C528.393 626.54 532.812 630.311 539.369 631.733C544.741 632.912 550.363 631.869 554.949 628.84C563.761 623.105 566.746 611.722 564.092 601.865C562.168 594.748 552.487 586.857 545.358 592.231C543.471 593.653 542.527 595.451 542.189 597.703C545.907 602.024 554.049 599.141 557.343 605.447C558.382 613.921 549.986 614.527 544.373 611.983C541.29 610.622 538.888 608.072 537.712 604.912C536.541 601.799 536.678 598.345 538.092 595.334C540.158 591.027 543.438 589.948 547.652 588.417Z" fill="#C8A55B"/>
<path d="M94.9341 328.217L162.975 328.22L163.07 338.772L134.766 338.71L134.802 398.532L134.795 426.404L123.27 426.482L123.302 338.708L94.873 338.775L94.9341 328.217Z" fill="#C8A55B"/>
<path d="M304.573 531.991C319.669 533.468 316.024 557.376 295.004 544.39C276.614 544.212 118.881 543.046 115.451 545.232C108.715 549.065 102.407 545.814 104.981 537.166C105.427 535.67 109.584 533.508 110.631 534.086C118.071 538.2 128.246 536.844 136.85 536.854L295.395 536.845C298.756 534.693 300.999 533.661 304.573 531.991Z" fill="#C8A55B"/>
<path d="M255.78 328.211L267.286 328.214L267.3 415.999L306.577 415.937L306.555 426.411L255.769 426.43L255.78 328.211Z" fill="#C8A55B"/>
<path d="M839.861 542.326C834.711 545.842 826.781 550.264 823.681 541.59C823.491 530.158 834.661 535.907 839.841 538.977C889.481 538.041 939.571 539.465 989.251 538.91C999.611 538.795 1010.86 539.443 1021.09 538.477L1020.51 542.71C1016.54 542.108 1005.55 542.331 1001.19 542.34L965.581 542.386L839.861 542.326Z" fill="#C8A55B"/>
<path d="M99.5475 528.866C100.324 528.864 101.026 529.185 101.799 529.438C102.774 530.812 102.313 548.221 102.145 551.24L101.083 551.974C97.7864 551.791 91.9604 548.215 88.6844 546.48C84.7924 545.604 77.7795 544.814 75.8145 541.153C77.0425 537.727 94.3685 531.86 99.5475 528.866Z" fill="#C8A55B"/>
<path d="M1034.14 530.591C1043.45 534.264 1048.66 537.245 1059.75 541.104L1048.49 544.023C1041.99 546.148 1039.68 547.73 1033.63 551.166C1036.36 540.963 1035.89 541.105 1034.14 530.591Z" fill="#C8A55B"/>
<path d="M558.556 636.528C564.374 642.213 555.855 661.734 540.616 656.459C538.386 653.486 538.205 654.145 537.851 650.909C543.354 645.506 551.107 653.529 558.556 636.528Z" fill="#C8A55B"/>
<path d="M576.035 636.469C578.475 638.006 580.529 645.229 584.246 647.301C588.279 649.551 594.373 647.449 597.521 649.631C598.152 652.255 597.782 651.879 596.805 654.85C583.323 664.184 574.689 649.882 576.035 636.469Z" fill="#C8A55B"/>
<path d="M567.531 564.139C568.477 564.967 572.617 573.825 573.548 575.726L568.015 587.82C566.499 585.778 563.183 578.524 561.905 575.868C563.999 572.199 565.776 568.007 567.531 564.139Z" fill="#C8A55B"/>
<path d="M1021.09 538.477C1022 537.17 1023.03 535.417 1024.64 535.112C1029.46 537.517 1029.71 544.781 1025.42 546.181C1023.51 545.382 1021.8 544.348 1020.51 542.71L1021.09 538.477Z" fill="#C8A55B"/>
<path d="M567.645 622.481C569.538 623.87 570.6 625.462 571.393 627.643C570.792 631.093 570.992 630.06 568.184 632.915C566.237 631.501 565.852 631.28 564.59 629.251C564.282 626.857 566.252 624.591 567.645 622.481Z" fill="#C8A55B"/>
</svg>
