<svg width="808" height="254" viewBox="0 0 808 254" fill="none" xmlns="http://www.w3.org/2000/svg">
<path d="M350.427 0.444C362.97 0.745 389.85 22.239 398.563 31.665C404.933 38.562 410.334 48.277 415.246 56.298C413.096 38.979 404.234 24.237 393.028 11.28C390.066 7.85801 386.864 4.444 384.41 0.645004L384 0C398.951 5.176 419.259 24.361 427.727 37.973C431.559 44.137 434.661 50.967 438.904 57.153C437.182 41.766 434.167 27.604 426.505 13.961C425.43 12.049 423.179 8.094 423.825 5.967L424.977 5.692C435.36 9.459 455.128 41.513 458.16 52.434C458.947 55.274 460.335 59.984 462.168 62.065L462.955 61.772C468.42 47.387 459.083 20.048 455.093 5.91901C455.604 6.22901 456.103 6.546 456.603 6.87C473.25 17.714 479.543 49.498 483.263 67.476C501.421 44.896 477.757 13.693 482.811 9.11C485.602 10.225 489.298 16.514 491.102 19.11C503.889 37.519 505.088 53.942 506.88 75.339C516.611 60.254 518.18 47.819 516.57 30.226C516.335 27.618 515.129 18.534 515.364 16.469C518.597 16.81 522.269 24.65 523.638 27.216C533.064 44.85 530.214 61.941 532.259 80.519C543.817 61.91 537.037 53.248 538.793 37.627L539.692 37.367C543.406 39.878 550.005 52.707 551.303 57.044C553.913 65.728 553.613 76.389 553.789 85.514C560.547 78.578 578.992 63.666 588.888 64.195L589.423 64.823C587.754 72.776 572.111 74.599 572.076 99.999C582.812 94.638 592.02 84.259 604.859 81.31C607.774 80.641 613.063 77.962 615.819 79.27C615.524 82.549 590.897 99.087 593.189 105.763C594.665 105.798 597.167 104.045 598.595 103.228C605.823 99.099 612.763 97.309 620.925 96.192C618.333 100.822 610.06 106.997 610.642 111.181C614.655 114.114 629.193 107.768 631.402 112.222C628.681 116.346 619.926 118.142 620.596 123.879C624.386 128.709 682.701 154.054 691.269 158.317C706.136 165.718 736.278 176.65 752.984 180.748C763.551 183.331 774.271 185.26 785.071 186.526C789.271 186.979 805.281 187.116 807.071 190.171C803.441 192.509 788.161 198.827 783.731 200.338C720.021 222.055 655.271 196.408 598.137 169.233C591.079 175.681 583.681 183.464 576.606 190.214C550.357 213.331 524.261 230.31 491.113 241.591C486.16 243.278 475.765 247.224 470.935 248.167C441.531 253.907 411.003 254.715 381.167 252.801C374.691 252.308 368.099 250.712 361.683 250.027C286.362 241.991 218.506 203.182 147.184 180.442C135.963 176.534 125.165 172.882 113.907 168.939C88.714 160.113 61.324 154.224 35.211 148.785C25.721 146.808 10.127 147.056 0 146.472C1.559 145.503 3.507 144.06 5.089 143.3C55.086 119.272 107.703 118.379 160.186 132.435C170.127 135.078 179.97 138.078 189.696 141.428C196.722 143.884 204.363 147.063 211.445 149.011C214.292 147.334 220.884 141.881 223.929 139.539C231.629 133.588 239.416 127.75 247.286 122.026C274.243 102.519 304.17 86.056 335.75 75.611C338.194 74.802 340.632 73.934 343.069 73.098C333.505 60.288 301.77 39.003 288.39 29.84C282.185 25.591 275.053 21.625 269.061 16.619C286.849 18.424 322.346 41.116 337.446 51.809C342.465 55.362 349.421 61.032 354.245 63.914L354.74 64.205C346.807 51.57 329.51 37.308 317.989 27.284C312.052 22.117 306.813 18.56 301.242 12.561C328.103 22.131 354.887 40.163 374.928 60.388C369.415 48.012 363.617 38.77 354.976 28.437C351.824 24.668 341.507 15.116 340.4 11.611L341.651 11.344C350.549 13.406 371.878 30.073 378.471 37.287C381.343 40.429 386.916 47.711 389.746 51.396C385.115 38 373.571 24.489 363.977 14.282C359.772 9.80801 354.943 5.747 350.89 0.992004L350.427 0.444Z" fill="black"/>
<path d="M404.415 113.058C418.665 111.451 436.188 116.693 447.417 125.301C475.329 146.694 469 182.802 438.25 197.514C429.578 201.663 423.414 203.251 413.689 204.334C410.251 204.435 407.313 204.414 403.816 204.228C368.012 202.318 335.693 166.612 362.089 133.303C372.339 120.369 388.201 114.485 404.415 113.058Z" fill="white"/>
<path d="M328.266 105.721L329.878 105.824L329.795 106.76C312.839 125.832 307.711 154.347 317.669 177.915C320.355 184.271 323.37 188.824 327.257 194.527C304.921 186.56 282.755 178.126 260.771 169.23C248.446 163.604 230.562 158.298 219.213 152.524C225.043 147.384 234.838 142.788 241.914 139.171C269.615 125.013 297.89 112.859 328.266 105.721Z" fill="white"/>
<path d="M494.258 122.636C500.202 123.384 528.559 137.451 535.148 140.581C553.478 149.287 574.3 157.901 592.089 167.322C585.258 173.888 563.929 185.331 555.023 189.843C535.043 200.728 511.92 207.265 489.883 212.147C494.212 204.207 500.527 196.209 503.066 187.562C511.043 160.406 505.442 146.157 494.258 122.636Z" fill="white"/>
</svg>
